<svg xmlns="http://www.w3.org/2000/svg" viewBox="0 0 1500 820" width="1500" height="820">
<defs>
  <style>
    .ln{fill:none;stroke:#E8E1D0;stroke-linecap:round;stroke-linejoin:round}
    .t{font-family:'Noto Serif','DejaVu Serif',serif;fill:#14202B;letter-spacing:4px;text-anchor:middle}
    .c{font-family:'DejaVu Sans',sans-serif;fill:#6B7680;font-size:16px;text-anchor:middle}
  </style>
  <!-- Kim cang chử (vajra) dọc, tâm 0,0 -->
  <g id="vajra" class="ln" stroke-width="5">
    <circle cx="0" cy="0" r="9"/>
    <path d="M0 -9 V-26 M0 9 V26"/>
    <path d="M-14 -26 H14 M-14 26 H14"/>
    <path d="M0 -26 V-78 M0 26 V78"/>
    <path d="M-6 -30 C-30 -45 -26 -66 -4 -78 M6 -30 C30 -45 26 -66 4 -78"/>
    <path d="M-6 30 C-30 45 -26 66 -4 78 M6 30 C30 45 26 66 4 78"/>
  </g>
  <!-- Hoa sen (Tịnh độ) tâm đáy 0,0 -->
  <g id="lotus" class="ln" stroke-width="4">
    <path d="M0 0 C-14 -20 -14 -44 0 -60 C14 -44 14 -20 0 0Z"/>
    <path d="M-4 -2 C-30 -10 -42 -32 -40 -50 C-22 -44 -10 -28 -4 -2"/>
    <path d="M4 -2 C30 -10 42 -32 40 -50 C22 -44 10 -28 4 -2"/>
    <path d="M-8 2 C-40 4 -60 -10 -66 -24 M8 2 C40 4 60 -10 66 -24"/>
  </g>
  <!-- Bộ thuỷ 氵 ba giọt -->
  <g id="thuy" fill="#E8E1D0">
    <path d="M0 0 c10 4 16 12 14 20 c-8 -2 -16 -10 -14 -20z"/>
    <path d="M-2 40 c10 4 16 12 14 20 c-8 -2 -16 -10 -14 -20z"/>
    <path d="M-6 112 q12 -24 30 -36 q-6 24 -26 40z"/>
  </g>
</defs>
<rect width="1500" height="820" fill="#F4F1EA"/>
<g transform="translate(250 60)">
  <path d="M-130 0 H130 V500 H-130 Z" fill="#101B26"/>
  <path class="ln" stroke-width="5" d="M-130 0 C-70 50 -112 120 -66 170 S-24 262 -44 322 S-12 418 0 452"/><path class="ln" stroke-width="5" d="M 130 0 C 70 50 112 120 66 170 S 24 262 44 322 S 12 418 -0 452"/>
  <use href="#lotus" transform="translate(0 120) scale(.8)"/>
  <use href="#vajra" transform="translate(0 285) scale(.85)"/>
  <circle cx="0" cy="452" r="6" fill="#E8E1D0"/>
  <text class="t" y="560" font-size="30">PHONG THUỶ LÀ TỊNH</text>
  <text class="c" y="610">A · Hai sóng hội về một điểm</text>
</g>
<g transform="translate(750 60)">
  <path d="M-130 0 H130 V500 L0 452 L-130 500 Z" fill="#101B26"/>
  <path class="ln" stroke-width="6" d="M-130 0 C-70 50 -112 120 -66 170 S-24 262 -44 322 S-12 418 0 452"/><path class="ln" stroke-width="6" d="M 130 0 C 70 50 112 120 66 170 S 24 262 44 322 S 12 418 -0 452"/>
  <path class="ln" stroke-width="2.5" d="M-96 60 q10 -4 12 8 M-84 128 q10 -2 10 10 M-60 196 q10 0 8 12 M-40 262 q10 2 6 12"/>
  <path class="ln" stroke-width="2.5" d="M96 60 q-10 -4 -12 8 M84 128 q-10 -2 -10 10 M60 196 q-10 0 -8 12 M40 262 q-10 2 -6 12"/>
  <use href="#lotus" transform="translate(0 130) scale(.75)"/>
  <circle class="ln" stroke-width="2" cx="0" cy="280" r="46" opacity=".6"/>
  <use href="#vajra" transform="translate(0 280) scale(.55)"/>
  <text class="t" y="560" font-size="30">PHONG THUỶ LÀ TỊNH</text>
  <text class="c" y="610">B · Sóng vảy rồng, đuôi én</text>
</g>
<g transform="translate(1250 60)">
  <path d="M-130 0 H130 V500 H-130 Z" fill="#101B26"/>
  <path class="ln" stroke-width="5" d="M-130 0 C-40 60 90 110 60 200 S-80 300 -40 380 S0 440 0 452"/><path class="ln" stroke-width="5" d="M 130 0 C 40 60 -90 110 -60 200 S 80 300 40 380 S -0 440 -0 452"/>
  <use href="#lotus" transform="translate(0 80) scale(.6)"/>
  <use href="#vajra" transform="translate(0 290) scale(.6)"/>
  <circle cx="0" cy="452" r="6" fill="#E8E1D0"/>
  <text class="t" y="560" font-size="30">PHONG THUỶ LÀ TỊNH</text>
  <text class="c" y="610">C · Hai sóng đan nhau (âm dương)</text>
</g>
<text class="c" x="750" y="780">Phác thảo lần 2 · Sóng xuất phát từ hai góc trên của lá cờ</text>
</svg>