<svg xmlns="http://www.w3.org/2000/svg" viewBox="0 0 1500 820" width="1500" height="820">
<defs>
<style>
.ln{fill:none;stroke:#E8E1D0;stroke-linecap:round;stroke-linejoin:round}
.t{font-family:'Noto Serif','DejaVu Serif',serif;fill:#101B26;text-anchor:middle}
.c{font-family:'DejaVu Sans',sans-serif;fill:#6B7680;font-size:16px;text-anchor:middle}
</style>
<g id="vajra" class="ln" stroke-width="4">
  <circle r="8"/><path d="M0-8V-22M0 8V22M-13-22H13M-13 22H13M0-22V-74M0 22V74"/>
  <path d="M-5-26C-28-40-26-62-3-74M5-26C28-40 26-62 3-74M-5 26C-28 40-26 62-3 74M5 26C28 40 26 62 3 74"/>
  <path d="M-3-30C-12-44-10-58 0-66C10-58 12-44 3-30M-3 30C-12 44-10 58 0 66C10 58 12 44 3 30" stroke-width="2.5"/>
</g>
<g id="lotus" class="ln" stroke-width="3.5">
  <path d="M0 0C-13-20-13-44 0-62C13-44 13-20 0 0Z"/>
  <path d="M-3-2C-26-12-36-34-32-54C-16-46-6-28-3-2M3-2C26-12 36-34 32-54C16-46 6-28 3-2"/>
  <path d="M-6 0C-36-2-54-18-60-36C-38-34-20-20-6 0M6 0C36-2 54-18 60-36C38-34 20-20 6 0"/>
  <path d="M-62 10H62" stroke-width="2.5"/><path d="M-40 18H40" stroke-width="2"/>
</g>
<g id="drops" fill="#E8E1D0">
  <path d="M0 0c9 3 14 11 12 18c-7-2-14-9-12-18z"/>
  <path d="M-2 36c9 3 14 11 12 18c-7-2-14-9-12-18z"/>
  <path d="M-6 100q11-22 27-32q-5 22-24 36z"/>
</g>
<path id="w1" d="M-130 30 C-70 100 -120 190 -36 252 S80 360 96 500"/>
<path id="w2" d="M-100 0 C-40 70 -80 180 6 228 S120 350 130 466"/>
<clipPath id="flag"><path d="M-130 0H130V500H-130Z"/></clipPath>
</defs>
<rect width="1500" height="820" fill="#F4F1EA"/>

<!-- Bản 1: sóng trơn -->
<g transform="translate(250 60)">
  <g clip-path="url(#flag)"><path d="M-130 0H130V500H-130Z" fill="#101B26"/>
  <use href="#w1" class="ln" stroke-width="5"/><use href="#w2" class="ln" stroke-width="5"/></g>
  <circle cx="62" cy="118" r="54" class="ln" stroke-width="1.5" opacity=".45"/>
  <use href="#lotus" transform="translate(62 128) scale(.72)"/>
  <use href="#drops" transform="translate(-104 300) scale(.62)"/>
  <use href="#vajra" transform="translate(-48 410) scale(.62)"/>
  <text class="t" y="556" font-size="27" letter-spacing="5">PHONG THUỶ LÀ TỊNH</text>
  <text class="c" y="610">1 · Sóng trơn</text>
</g>

<!-- Bản 2: vảy rồng giữa hai sóng -->
<g transform="translate(750 60)">
  <g clip-path="url(#flag)"><path d="M-130 0H130V500H-130Z" fill="#101B26"/>
  <use href="#w1" class="ln" stroke-width="5"/><use href="#w2" class="ln" stroke-width="5"/>
  <path class="ln" stroke-width="2" opacity=".85" d="M-100 52q10-2 12 10M-94 96q10-2 10 10M-86 140q10 0 8 12M-70 184q10 2 6 12M-46 224q8 4 2 14M-14 248q6 6-2 14M20 274q6 6-2 14M48 306q6 6-2 14M70 346q6 6-2 14M86 390q6 6-2 14M98 436q6 6-2 14"/></g>
  <circle cx="62" cy="118" r="54" class="ln" stroke-width="1.5" opacity=".45"/>
  <use href="#lotus" transform="translate(62 128) scale(.72)"/>
  <use href="#drops" transform="translate(-104 300) scale(.62)"/>
  <use href="#vajra" transform="translate(-48 410) scale(.62)"/>
  <text class="t" y="556" font-size="27" letter-spacing="5">PHONG THUỶ LÀ TỊNH</text>
  <text class="c" y="610">2 · Vảy rồng giữa hai sóng</text>
</g>

<!-- Bản 3: chữ TỊNH nhấn -->
<g transform="translate(1250 60)">
  <g clip-path="url(#flag)"><path d="M-130 0H130V500H-130Z" fill="#101B26"/>
  <use href="#w1" class="ln" stroke-width="5"/><use href="#w2" class="ln" stroke-width="5"/>
  <path class="ln" stroke-width="2" opacity=".85" d="M-100 52q10-2 12 10M-94 96q10-2 10 10M-86 140q10 0 8 12M-70 184q10 2 6 12M-46 224q8 4 2 14M-14 248q6 6-2 14M20 274q6 6-2 14M48 306q6 6-2 14M70 346q6 6-2 14M86 390q6 6-2 14M98 436q6 6-2 14"/></g>
  <circle cx="62" cy="118" r="54" class="ln" stroke-width="1.5" opacity=".45"/>
  <use href="#lotus" transform="translate(62 128) scale(.72)"/>
  <use href="#drops" transform="translate(-104 300) scale(.62)"/>
  <use href="#vajra" transform="translate(-48 410) scale(.62)"/>
  <text class="t" y="548" font-size="17" letter-spacing="7">PHONG THUỶ LÀ</text>
  <text class="t" y="600" font-size="46" letter-spacing="12">TỊNH</text>
  <text class="c" y="640">3 · Nhấn chữ TỊNH</text>
</g>

<!-- thử cỡ nhỏ -->
<g transform="translate(560 720) scale(.12)"><g clip-path="url(#flag)"><path d="M-130 0H130V500H-130Z" fill="#101B26"/><use href="#w1" class="ln" stroke-width="9"/><use href="#w2" class="ln" stroke-width="9"/></g><use href="#lotus" transform="translate(62 128) scale(.72)"/><use href="#vajra" transform="translate(-48 410) scale(.62)"/></g>
<text class="c" x="760" y="760">← thử ở cỡ avatar nhỏ · Phác thảo lần 5 · nền A1</text>
</svg>
